<?xml version="1.0" encoding="UTF-8" standalone="no"?>
<svg
   xmlns:dc="http://purl.org/dc/elements/1.1/"
   xmlns:cc="http://creativecommons.org/ns#"
   xmlns:rdf="http://www.w3.org/1999/02/22-rdf-syntax-ns#"
   xmlns:svg="http://www.w3.org/2000/svg"
   xmlns="http://www.w3.org/2000/svg"
   xmlns:sodipodi="http://sodipodi.sourceforge.net/DTD/sodipodi-0.dtd"
   xmlns:inkscape="http://www.inkscape.org/namespaces/inkscape"
   width="16"
   height="16"
   fill="currentColor"
   class="bi bi-folder-x"
   viewBox="0 0 16 16"
   version="1.1"
   id="svg6"
   sodipodi:docname="folder-arrow-down.svg"
   inkscape:version="1.0.2-2 (e86c870879, 2021-01-15)">
  <metadata
     id="metadata12">
    <rdf:RDF>
      <cc:Work
         rdf:about="">
        <dc:format>image/svg+xml</dc:format>
        <dc:type
           rdf:resource="http://purl.org/dc/dcmitype/StillImage" />
      </cc:Work>
    </rdf:RDF>
  </metadata>
  <defs
     id="defs10" />
  <sodipodi:namedview
     pagecolor="#ffffff"
     bordercolor="#666666"
     borderopacity="1"
     objecttolerance="10"
     gridtolerance="10"
     guidetolerance="10"
     inkscape:pageopacity="0"
     inkscape:pageshadow="2"
     inkscape:window-width="1611"
     inkscape:window-height="1991"
     id="namedview8"
     showgrid="false"
     inkscape:zoom="63"
     inkscape:cx="8"
     inkscape:cy="8"
     inkscape:window-x="2105"
     inkscape:window-y="12"
     inkscape:window-maximized="0"
     inkscape:current-layer="svg6" />
  <path
     d="M.54 3.87.5 3a2 2 0 0 1 2-2h3.672a2 2 0 0 1 1.414.586l.828.828A2 2 0 0 0 9.828 3h3.982a2 2 0 0 1 1.992 2.181L15.546 8H14.54l.265-2.91A1 1 0 0 0 13.81 4H2.19a1 1 0 0 0-.996 1.09l.637 7a1 1 0 0 0 .995.91H9v1H2.826a2 2 0 0 1-1.991-1.819l-.637-7a1.99 1.99 0 0 1 .342-1.31zm6.339-1.577A1 1 0 0 0 6.172 2H2.5a1 1 0 0 0-1 .981l.006.139C1.72 3.042 1.95 3 2.19 3h5.396l-.707-.707z"
     id="path2" />
  <path
     d="m 13.547618,8.6106642 a 0.5,0.5 0 0 0 -1,0 v 3.7929998 l -1.145999,-1.147 a 0.5006316,0.5006316 0 1 0 -0.708,0.708 l 1.999999,2 a 0.5,0.5 0 0 0 0.708,0 l 2,-2 a 0.5006316,0.5006316 0 0 0 -0.708,-0.708 l -1.146,1.147 z"
     id="path2-1" />
</svg>
