<?xml version="1.0" standalone="no"?>
<!DOCTYPE svg PUBLIC "-//W3C//DTD SVG 20010904//EN"
 "http://www.w3.org/TR/2001/REC-SVG-20010904/DTD/svg10.dtd">
<svg version="1.0" xmlns="http://www.w3.org/2000/svg"
 width="767.000000pt" height="767.000000pt" viewBox="0 0 767.000000 767.000000"
 preserveAspectRatio="xMidYMid meet">
<metadata>
Created by potrace 1.11, written by Peter Selinger 2001-2013
</metadata>
<g transform="translate(0.000000,767.000000) scale(0.100000,-0.100000)"
fill="#000000" stroke="none">
<path d="M5773 5239 c-185 -18 -406 -88 -558 -177 -388 -227 -601 -634 -622
-1192 -19 -508 124 -928 407 -1194 235 -221 545 -327 955 -328 293 0 535 57
851 201 l109 50 3 221 c3 257 5 254 -95 172 -166 -138 -370 -240 -563 -282
-410 -90 -765 -5 -990 236 -143 153 -240 374 -271 619 -17 138 -7 463 19 580
86 393 318 656 657 746 102 27 327 37 446 20 247 -36 453 -124 671 -288 59
-45 105 -73 114 -69 12 5 14 39 12 228 l-3 222 -120 54 c-351 157 -673 214
-1022 181z"/>
<path d="M750 5193 c0 -5 166 -633 369 -1398 l368 -1390 209 -3 210 -2 284
1150 c157 632 286 1146 288 1142 1 -5 132 -521 291 -1148 l288 -1139 215 -3
214 -2 362 1393 c199 766 362 1396 362 1400 0 4 -83 7 -184 7 -138 0 -185 -3
-188 -12 -2 -7 -132 -529 -289 -1160 -156 -630 -287 -1143 -290 -1140 -4 4
-133 518 -289 1142 -155 624 -284 1143 -287 1153 -4 16 -20 17 -196 15 l-192
-3 -286 -1150 c-158 -632 -289 -1143 -292 -1135 -7 18 -577 2274 -577 2283 0
4 -88 7 -195 7 -107 0 -195 -3 -195 -7z"/>
</g>
</svg>
