<?xml version="1.0" encoding="UTF-8" standalone="no"?>
<svg
   xmlns:dc="http://purl.org/dc/elements/1.1/"
   xmlns:cc="http://creativecommons.org/ns#"
   xmlns:rdf="http://www.w3.org/1999/02/22-rdf-syntax-ns#"
   xmlns:svg="http://www.w3.org/2000/svg"
   xmlns="http://www.w3.org/2000/svg"
   xmlns:sodipodi="http://sodipodi.sourceforge.net/DTD/sodipodi-0.dtd"
   xmlns:inkscape="http://www.inkscape.org/namespaces/inkscape"
   width="15"
   height="1"
   fill="currentColor"
   class="bi bi-reception-0"
   viewBox="0 0 15 1"
   version="1.1"
   id="svg4"
   sodipodi:docname="seperator.svg"
   inkscape:version="1.0.2-2 (e86c870879, 2021-01-15)">
  <metadata
     id="metadata10">
    <rdf:RDF>
      <cc:Work
         rdf:about="">
        <dc:format>image/svg+xml</dc:format>
        <dc:type
           rdf:resource="http://purl.org/dc/dcmitype/StillImage" />
        <dc:title></dc:title>
      </cc:Work>
    </rdf:RDF>
  </metadata>
  <defs
     id="defs8" />
  <sodipodi:namedview
     pagecolor="#ffffff"
     bordercolor="#666666"
     borderopacity="1"
     objecttolerance="10"
     gridtolerance="10"
     guidetolerance="10"
     inkscape:pageopacity="0"
     inkscape:pageshadow="2"
     inkscape:window-width="2560"
     inkscape:window-height="1417"
     id="namedview6"
     showgrid="false"
     fit-margin-top="0"
     fit-margin-left="0"
     fit-margin-right="0"
     fit-margin-bottom="0"
     inkscape:zoom="63"
     inkscape:cx="8"
     inkscape:cy="-5"
     inkscape:window-x="-8"
     inkscape:window-y="-8"
     inkscape:window-maximized="1"
     inkscape:current-layer="svg4" />
  <path
     d="M 0,0.5 A 0.5,0.5 0 0 1 0.5,0 h 2 a 0.5,0.5 0 0 1 0,1 h -2 A 0.5,0.5 0 0 1 0,0.5 Z m 4,0 A 0.5,0.5 0 0 1 4.5,0 h 2 a 0.5,0.5 0 0 1 0,1 h -2 A 0.5,0.5 0 0 1 4,0.5 Z m 4,0 A 0.5,0.5 0 0 1 8.5,0 h 2 a 0.5,0.5 0 0 1 0,1 h -2 A 0.5,0.5 0 0 1 8,0.5 Z m 4,0 A 0.5,0.5 0 0 1 12.5,0 h 2 a 0.5,0.5 0 0 1 0,1 h -2 A 0.5,0.5 0 0 1 12,0.5 Z"
     id="path2" />
</svg>
