<?xml version="1.0" encoding="UTF-8" standalone="no"?>
<svg
   xmlns:dc="http://purl.org/dc/elements/1.1/"
   xmlns:cc="http://creativecommons.org/ns#"
   xmlns:rdf="http://www.w3.org/1999/02/22-rdf-syntax-ns#"
   xmlns:svg="http://www.w3.org/2000/svg"
   xmlns="http://www.w3.org/2000/svg"
   xmlns:sodipodi="http://sodipodi.sourceforge.net/DTD/sodipodi-0.dtd"
   xmlns:inkscape="http://www.inkscape.org/namespaces/inkscape"
   width="100mm"
   height="100mm"
   viewBox="0 0 100 100"
   version="1.1"
   id="svg8"
   inkscape:version="1.0.2-2 (e86c870879, 2021-01-15)"
   sodipodi:docname="favicon.svg">
  <defs
     id="defs2" />
  <sodipodi:namedview
     id="base"
     pagecolor="#ffffff"
     bordercolor="#666666"
     borderopacity="1.0"
     inkscape:pageopacity="0.0"
     inkscape:pageshadow="2"
     inkscape:zoom="1.4"
     inkscape:cx="379.53207"
     inkscape:cy="196.34508"
     inkscape:document-units="mm"
     inkscape:current-layer="layer1"
     inkscape:document-rotation="0"
     showgrid="false"
     inkscape:window-width="1920"
     inkscape:window-height="1057"
     inkscape:window-x="-8"
     inkscape:window-y="-8"
     inkscape:window-maximized="1" />
  <metadata
     id="metadata5">
    <rdf:RDF>
      <cc:Work
         rdf:about="">
        <dc:format>image/svg+xml</dc:format>
        <dc:type
           rdf:resource="http://purl.org/dc/dcmitype/StillImage" />
        <dc:title />
      </cc:Work>
    </rdf:RDF>
  </metadata>
  <g
     inkscape:groupmode="layer"
     id="layer2"
     inkscape:label="O"
     style="display:inline">
    <g
       aria-label="O"
       transform="scale(0.97104137,1.0298222)"
       id="text840"
       style="font-size:161.682px;line-height:1.25;font-family:'Courier New';-inkscape-font-specification:'Courier New';fill:#4080e0;fill-opacity:1;stroke-width:4.04207">
      <path
         d="m 91.860097,48.552022 q 0,13.262977 -5.368348,24.631243 -5.368348,11.28932 -14.841903,17.605023 -9.394608,6.315704 -20.210251,6.315704 -16.026097,0 -28.262772,-13.578763 -12.157729,-13.657708 -12.157729,-34.973207 0,-21.394445 12.157729,-34.973208 Q 35.413498,5.2034855e-5 51.439595,5.2034855e-5 q 10.815643,0 20.210251,6.315703365145 9.394609,6.3157036 14.762957,17.6050236 5.447294,11.289319 5.447294,24.631243 z m -6.710435,0 q 0,-16.18399 -9.394608,-29.052236 Q 66.360445,6.6315406 51.439595,6.6315406 q -13.973493,0 -23.920726,12.3156214 -9.868287,12.236676 -9.868287,29.60486 0,18.473432 10.341965,30.23643 10.42091,11.684051 23.447048,11.684051 14.92085,0 24.315459,-12.789299 9.394608,-12.868246 9.394608,-29.131182 z"
         style="fill:#4080e0;fill-opacity:1;stroke-width:4.04207"
         id="path845" />
    </g>
  </g>
  <g
     inkscape:label="M"
     inkscape:groupmode="layer"
     id="layer1">
    <g
       aria-label="M"
       transform="scale(0.99072809,1.0093587)"
       id="text835"
       style="font-size:173.42px;line-height:1.25;font-family:'Courier New';-inkscape-font-specification:'Courier New';fill:#ffc040;stroke-width:4.33551;fill-opacity:1">
      <path
         d="M 54.701819,69.350923 H 46.572756 L 19.221848,7.1127888 H 17.867005 V 91.959878 h 13.125048 q 2.540332,0 3.641143,1.016133 1.10081,0.931455 1.10081,2.540332 0,1.524199 -1.10081,2.540332 -1.100811,1.016132 -3.641143,1.016132 H 4.7419559 q -2.540332,0 -3.6411426,-1.016132 Q 2.8014183e-6,97.040542 2.8014183e-6,95.516343 q 0,-1.608877 1.1008104985817,-2.540332 1.1008106,-1.016133 3.6411426,-1.016133 H 10.754075 V 7.1127888 H 6.2661551 q -2.540332,0 -3.6411426,-0.9314551 Q 1.524202,5.1652009 1.524202,3.5563239 q 0,-1.6088769 1.1008105,-2.540332 Q 3.7258231,-1.4086068e-4 6.2661551,-1.4086068e-4 H 23.709768 L 50.637287,61.306538 77.141418,-1.4086068e-4 h 17.443613 q 2.62501,0 3.72582,1.01613276068 1.100811,0.9314551 1.100811,2.540332 0,1.608877 -1.100811,2.6250098 -1.10081,0.9314551 -3.72582,0.9314551 H 90.181789 V 91.959878 h 5.927441 q 2.62501,0 3.725821,1.016133 1.100809,0.931455 1.100809,2.540332 0,1.524199 -1.100809,2.540332 -1.100811,1.016132 -3.725821,1.016132 H 69.943811 q -2.540332,0 -3.725821,-1.016132 -1.10081,-1.016133 -1.10081,-2.540332 0,-1.608877 1.10081,-2.540332 1.100811,-1.016133 3.725821,-1.016133 H 83.068859 V 7.1127888 H 81.54466 Z"
         style="fill:#ffc040;stroke-width:4.33551;fill-opacity:1"
         id="path848" />
    </g>
  </g>
</svg>
